<svg width="40" height="40" viewBox="0 0 40 40" fill="none" xmlns="http://www.w3.org/2000/svg">
<rect width="40" height="40" rx="10" fill="#7A7A7A"/>
<path fill-rule="evenodd" clip-rule="evenodd" d="M10.3414 15.896C10.1736 15.4626 10.4946 15 10.9594 15H13.4247C13.6917 15 13.9328 15.1588 14.0395 15.4036C14.4257 16.2896 15.3694 18.4168 16.0188 19.5622C16.5812 20.5543 17.2641 20.9694 17.6493 21.1345C17.8024 21.2002 17.952 21.0836 17.952 20.917C17.952 20.1299 17.952 18.1052 17.952 17.3682C17.952 16.8585 17.5756 16.1899 17.2385 15.6931C17.0467 15.4106 17.2436 15 17.5851 15H21.021C21.3182 15 21.5581 15.2415 21.5549 15.5386C21.5417 16.7695 21.5152 19.7038 21.5611 19.9789C21.6193 20.3281 22.0815 20.5807 22.9666 19.5622C23.6032 18.8298 24.757 16.7911 25.3548 15.7039C25.5923 15.272 26.0448 15 26.5378 15H28.6225C29.0162 15 29.2731 15.4112 29.0963 15.763C28.7797 16.3931 28.3371 17.2504 28.0655 17.6758C26.8935 19.5119 26.0676 20.4358 26.0676 20.804C26.0676 21.1918 27.1004 22.0408 28.6021 23.8158C28.8224 24.0761 29.1329 24.5486 29.4053 24.9852C29.6769 25.4204 29.3591 25.9738 28.8461 25.9738H26.5444C26.2964 25.9738 26.0597 25.8762 25.8832 25.7019C25.2271 25.0542 23.5644 23.4363 22.8224 22.9317C21.8869 22.2954 21.5611 22.806 21.5611 23.4745C21.5611 23.8613 21.5611 24.6377 21.5611 25.223C21.5611 25.6453 21.234 25.9905 20.8119 25.9766C19.5417 25.9347 16.9441 25.6419 15.3033 24.036C14.3539 23.1067 13.0185 21.5947 11.846 19.4093C11.4035 18.5846 10.7408 16.9273 10.3414 15.896Z" fill="white"/>
</svg>
