<?xml version="1.0" standalone="no"?>
<!DOCTYPE svg PUBLIC "-//W3C//DTD SVG 20010904//EN"
 "http://www.w3.org/TR/2001/REC-SVG-20010904/DTD/svg10.dtd">
<svg version="1.0" xmlns="http://www.w3.org/2000/svg"
 width="700.000000pt" height="700.000000pt" viewBox="0 0 700.000000 700.000000"
 preserveAspectRatio="xMidYMid meet">
<metadata>
Created by potrace 1.14, written by Peter Selinger 2001-2017
</metadata>
<g transform="translate(0.000000,700.000000) scale(0.100000,-0.100000)"
fill="#000000" stroke="none">
<path d="M3116 6985 c-698 -84 -1327 -352 -1857 -792 -57 -47 -167 -150 -244
-227 -544 -547 -882 -1237 -987 -2018 -32 -235 -32 -651 0 -886 122 -902 557
-1686 1257 -2266 445 -369 1011 -629 1599 -736 381 -69 851 -69 1237 0 861
154 1639 633 2170 1335 801 1060 934 2476 343 3665 -482 971 -1380 1660 -2439
1875 -235 48 -335 57 -655 60 -220 3 -338 0 -424 -10z m506 -1110 c28 -20 53
-49 71 -84 l27 -55 0 -243 0 -243 24 0 c59 0 268 -43 365 -76 290 -96 466
-271 516 -510 27 -130 4 -220 -72 -283 -72 -60 -187 -67 -262 -18 -60 40 -91
93 -101 172 -4 36 -15 76 -24 90 -48 74 -209 141 -403 169 l-43 6 0 -498 0
-498 123 -17 c438 -60 726 -236 876 -534 77 -154 114 -388 93 -582 -55 -495
-368 -795 -930 -892 -63 -10 -125 -19 -138 -19 l-24 0 0 -243 0 -243 -27 -55
c-19 -35 -43 -64 -71 -84 -40 -27 -51 -30 -122 -30 -71 0 -82 3 -122 30 -28
20 -52 49 -70 84 l-28 55 0 241 0 242 -99 6 c-237 16 -457 69 -630 153 -98 48
-125 67 -197 138 -93 92 -134 164 -159 282 -27 128 -13 209 48 273 126 133
359 63 383 -115 10 -70 14 -82 40 -114 65 -77 285 -146 527 -166 l87 -7 0 582
0 581 -50 0 c-73 0 -258 28 -364 54 -208 53 -351 129 -471 250 -92 93 -152
197 -187 323 -28 105 -31 363 -4 497 78 396 323 623 771 716 50 10 139 24 198
31 l107 12 0 241 c0 233 1 243 24 292 41 87 106 125 208 121 56 -2 75 -8 110
-32z"/>
<path d="M3145 4789 c-98 -14 -211 -46 -278 -78 -171 -82 -236 -208 -237 -462
0 -143 34 -222 125 -291 85 -64 257 -115 453 -134 l72 -7 0 492 0 491 -37 -1
c-21 -1 -65 -5 -98 -10z"/>
<path d="M3720 2780 l0 -570 48 7 c98 12 240 54 322 95 202 99 294 271 276
518 -10 149 -55 261 -136 340 -53 52 -157 110 -240 134 -54 16 -218 46 -252
46 -17 0 -18 -34 -18 -570z"/>
</g>
</svg>
